<svg width="20" height="20" viewBox="0 0 20 20" fill="none" xmlns="http://www.w3.org/2000/svg">
<path d="M5.83301 18.3332H4.99967C4.55765 18.3332 4.13372 18.1576 3.82116 17.845C3.5086 17.5325 3.33301 17.1085 3.33301 16.6665V3.33317C3.33301 2.89114 3.5086 2.46722 3.82116 2.15466C4.13372 1.8421 4.55765 1.6665 4.99967 1.6665H14.9997C15.4417 1.6665 15.8656 1.8421 16.1782 2.15466C16.4907 2.46722 16.6663 2.89114 16.6663 3.33317V7.49984V14.1665" stroke="#484DCA" stroke-width="1.5" stroke-linecap="round" stroke-linejoin="round"/>
<path d="M18.333 19.1665V17.4998C18.333 16.6158 18.0038 15.7679 17.4177 15.1428C16.8317 14.5177 16.0368 14.1665 15.208 14.1665H8.95801C8.12921 14.1665 7.33435 14.5177 6.7483 15.1428C6.16225 15.7679 5.83301 16.6158 5.83301 17.4998V19.1665" stroke="#484DCA" stroke-width="1.5" stroke-linecap="round" stroke-linejoin="round"/>
<path d="M11.6663 10.8332C13.5073 10.8332 14.9997 9.34079 14.9997 7.49984C14.9997 5.65889 13.5073 4.1665 11.6663 4.1665C9.82539 4.1665 8.33301 5.65889 8.33301 7.49984C8.33301 9.34079 9.82539 10.8332 11.6663 10.8332Z" stroke="#484DCA" stroke-width="1.5" stroke-linecap="round" stroke-linejoin="round"/>
</svg>
